<?xml version="1.0" encoding="utf-8"?>
<!-- Generator: Adobe Illustrator 26.0.0, SVG Export Plug-In . SVG Version: 6.00 Build 0)  -->
<svg version="1.1" id="Layer_1" xmlns="http://www.w3.org/2000/svg" xmlns:xlink="http://www.w3.org/1999/xlink" x="0px" y="0px"
	 viewBox="0 0 48 48" style="enable-background:new 0 0 48 48;" xml:space="preserve">
<style type="text/css">
	.st0{fill:#FFFFFF;}
	.st1{fill:#292929;}
</style>
<g>
	<path class="st0" d="M48,36c0,6.6-5.4,12-12,12H12C5.4,48,0,42.6,0,36V12C0,5.4,5.4,0,12,0h24c6.6,0,12,5.4,12,12V36z"/>
	<g>
		<path class="st1" d="M20,39h6c0,0,0-8.3,0-15h4.5l0.5-6h-4.8v-2.4c0-1.2,0.8-1.4,1.3-1.4c0.5,0,3.4,0,3.4,0V9l-4.6,0
			c-5.1,0-6.3,3.8-6.3,6.3V18h-3v6h3C20,30.8,20,39,20,39z"/>
	</g>
</g>
</svg>
