<?xml version="1.0" encoding="utf-8"?>
<!-- Generator: Adobe Illustrator 26.0.0, SVG Export Plug-In . SVG Version: 6.00 Build 0)  -->
<svg version="1.1" id="Layer_1" xmlns="http://www.w3.org/2000/svg" xmlns:xlink="http://www.w3.org/1999/xlink" x="0px" y="0px"
	 viewBox="0 0 48 48" style="enable-background:new 0 0 48 48;" xml:space="preserve">
<style type="text/css">
	.st0{fill:#FFFFFF;}
</style>
<path class="st0" d="M48,36c0,6.6-5.4,12-12,12H12C5.4,48,0,42.6,0,36V12C0,5.4,5.4,0,12,0h24c6.6,0,12,5.4,12,12V36z"/>
<path d="M33.2,9H14.8C11.6,9,9,11.6,9,14.8v18.4c0,3.2,2.6,5.8,5.8,5.8h18.4c3.2,0,5.8-2.6,5.8-5.8V14.8C39,11.6,36.4,9,33.2,9z
	 M34.9,12.5h0.7v5.1h-5.1v-5.1H34.9z M19.7,20.9c1-1.3,2.5-2.2,4.3-2.2s3.3,0.9,4.3,2.2c0.6,0.9,1,1.9,1,3.1c0,2.9-2.4,5.3-5.3,5.3
	s-5.3-2.4-5.3-5.3C18.7,22.9,19.1,21.8,19.7,20.9z M36.1,33.2c0,1.6-1.3,2.9-2.9,2.9H14.8c-1.6,0-2.9-1.3-2.9-2.9V20.9h4.5
	c-0.4,1-0.6,2-0.6,3.1c0,4.5,3.7,8.2,8.2,8.2s8.2-3.7,8.2-8.2c0-1.1-0.2-2.1-0.6-3.1h4.5V33.2z"/>
</svg>
